# xmcd CD database file
#
# Track frame offsets:
#	182
#	4115
#	17230
#	28840
#	45335
#	63027
#	79290
#	94312
#	105865
#	118037
#	147175
#	168350
#	184282
#	227860
#
# Disc length: 3586 seconds
#
# Revision: 0
# Processed by: cddbd v1.5.2PL0 Copyright (c) Steve Scherf et al.
# Submitted via: CDex 1.51
#
DISCID=ae0e000e
DTITLE=Stan Laferrière - De Basin Street à St. Germain-des-Prés
DYEAR=1996
DGENRE=Jazz
TTITLE0=INTRO
TTITLE1=PIONNERS BAG (Scott Joplin and Co - 1915)
TTITLE2=FOR FIVE GUYS (Louis Armstrong - 1925)
TTITLE3=FRIDAY (Bix Beiderbecke - 1927)
TTITLE4=RUNNING FINGERS (Benny Goodman -1935)
TTITLE5=PHIL D.P. SERENADE (Duke Ellington - 1938)
TTITLE6=SWING 96 (Django Reinhardt - 1940)
TTITLE7=MOST OF ALL (Nat King Cole - 1942)
TTITLE8=HEY ! MISTER COUNT (Count Basie - 1943)
TTITLE9=THE MOON DRIVES ME LOON (Coleman Hawkins - 1944)
TTITLE10=WATCH YOUR STEP (Charlie Parker - Dizzy Gillespie - 1945)
TTITLE11=CHEESE CAKE (Gerry Mulligan - Chet Baker - 1952)
TTITLE12=THERE'S NO BUTTERFLY (Miles Davis - 1955)
TTITLE13=FRENCH TRIP (Art Blakey - 1959)
EXTD=YEAR: 1996
EXTT0=
EXTT1=
EXTT2=
EXTT3=
EXTT4=
EXTT5=
EXTT6=
EXTT7=
EXTT8=
EXTT9=
EXTT10=
EXTT11=
EXTT12=
EXTT13=
PLAYORDER=
